<?xml version="1.0"?>
<svg width="400" height="394" xmlns="http://www.w3.org/2000/svg" xmlns:svg="http://www.w3.org/2000/svg" xmlns:xlink="http://www.w3.org/1999/xlink">
<defs>
  <radialGradient spreadMethod="pad" cx="0.420593" cy="0.296875" r="0.5" id="gradient">
   <stop stop-color="#ffaa56" stop-opacity="0.996094" offset="0"/>
   <stop stop-color="#f75f2c" stop-opacity="0.992188" offset="1"/>
  </radialGradient>
  <symbol id="lines" xmlns:xlink="http://www.w3.org/1999/xlink" xmlns="http://www.w3.org/2000/svg">
   <g id="lines_group">
    <path d="m50,96.300003c-25.5,0 -46.2,-20.800003 -46.2,-46.300003s20.7,-46.2 46.2,-46.2s46.300003,20.7 46.300003,46.2s-20.800003,46.300003 -46.300003,46.300003zm0,-87.500003c-22.700001,0 -41.2,18.499999 -41.2,41.2s18.499999,41.300011 41.2,41.300011s41.300003,-18.600021 41.300003,-41.300011s-18.600014,-41.2 -41.300003,-41.2z" id="svg_5"/>
    <path d="m36.599998,83.599998c-12.199999,0 -22.499998,-4.599998 -26.899999,-13.400002c-0.3,-0.599998 -0.099999,-1.399986 0.6,-1.699997c0.599999,-0.300003 1.4,-0.099998 1.7,0.599998c6.799999,13.599998 29.400002,16 50.299999,5.5c21.000004,-10.5 32.500004,-30.099998 25.700001,-43.699999c-0.300003,-0.6 -0.099998,-1.400009 0.599998,-1.699999c0.599991,-0.300001 1.400002,-0.1 1.700005,0.599998c7.399986,14.799992 -4.600014,35.899998 -26.700005,47.000004c-9.199997,4.599998 -18.5,6.799995 -27,6.799995z" id="svg_6"/>
    <path d="m74.099998,87.800003c-0.400002,0 -0.799995,-0.200005 -1,-0.600014c-0.400002,-0.599998 -0.199997,-1.399986 0.400002,-1.699997c0.5,-0.400002 1.099998,-3.300003 -2.800003,-12.300003c-3.199997,-7.699997 -8.599998,-17.200001 -14.999996,-26.899998c-6.400002,-9.700001 -13.100002,-18.300001 -18.900002,-24.300001c-6.79999,-7.1 -9.699999,-7.70001 -10.199999,-7.400001c-0.6,0.400001 -1.4,0.2 -1.700001,-0.4s-0.199999,-1.400001 0.4,-1.70001c0.900002,-0.6 3.70001,-2.4 13.400002,7.700009c5.899998,6.1 12.700001,14.900002 19.200001,24.700001c6.5,9.799999 11.900002,19.499996 15.199997,27.299999c5.5,13 2.700005,14.800003 1.800003,15.400002c-0.300003,0.099998 -0.599998,0.199997 -0.800003,0.199997l0,0.000015z" id="svg_7"/>
    <path d="m46.599998,94.900002c-0.099998,0 -0.099998,0 -0.199997,0c-0.700001,0 -1.200001,-0.599998 -1.200001,-1.300003s0.599998,-1.199997 1.299999,-1.199997c2.5,0.099998 10,-2.099998 13,-6.700005c1.599998,-2.5 1.700001,-5.299995 0.200001,-8.299995c-2.5,-5.099998 -7.700001,-7.300003 -14.799999,-10.400002c-1.5,-0.599998 -3,-1.300003 -4.600002,-2l-0.799999,-0.400002c-9.700001,-4.299999 -27.6,-12.299999 -32.1,-28c-0.2,-0.699997 0.2,-1.399998 0.9,-1.5c0.7,-0.199997 1.4,0.200001 1.5,0.900002c4.2,14.599998 21.400001,22.299999 30.7,26.400002l0.799999,0.399998c1.600002,0.700001 3.100002,1.399998 4.60001,2.000004c7.39999,3.099998 13.199989,5.599998 16.099991,11.599998c1.900009,3.900002 1.700001,7.599998 -0.299999,10.799995c-3.600002,5 -11.600002,7.700005 -15.100002,7.700005l0,0z" id="svg_8"/>
    <path d="m86.599998,71.400002c-0.400002,0 -0.799995,0 -1.199997,-0.099998c-2.900002,-0.600014 -5.400002,-3.200005 -7,-7.200005c-2.900002,-7.199997 -3.099998,-12.5 -3.400002,-18.699997c-0.199997,-3.800003 -0.400002,-8.100002 -1.199997,-13.700001c-1.600014,-10.1 -6.900002,-17.1 -11.900002,-22.700001c-0.5,-0.5 -0.400002,-1.3 0.099998,-1.8c0.5,-0.5 1.299992,-0.4 1.799992,0.1c5.200008,5.8 10.800007,13.3 12.500011,24.099999c0.899986,5.6 1.099998,10.000002 1.299995,13.9c0.300003,6.200001 0.5,11 3.200005,17.900002c1.199997,3.100002 3.199997,5.299999 5.199997,5.700001c1,0.199997 1.900002,0 2.599998,-0.700005c0.5,-0.5 1.300003,-0.5 1.800003,0c0.5,0.5 0.5,1.300003 0,1.800003c-1.099998,0.900002 -2.400002,1.400002 -3.800003,1.400002z" id="svg_9"/>
   </g>
  </symbol>
 </defs>
 <g>
   <circle fill="url(#gradient)" stroke-width="0" cx="199.749983" cy="197.572375" r="182.649933" id="orange"/>
   <use stroke="null" transform="matrix(4.021184370257757,0,0,4.021184370257757,-205.38431666880504,-204.74712587638587) " y="50" x="50" xlink:href="#lines" id="black"/>
 </g>
</svg>